# xmcd
#
# Track frame offsets: 
#        150
#        30061
#        43739
#        75307
#        100980
#        112503
#        132126
#        160024
#        184284
#        240807
#        274930
#
# Disc length: 4272 seconds
#
# Revision: 0
# Processed by: cddbd v1.5.1PL0 Copyright (c) Steve Scherf et al.
# Submitted via: ExactAudioCopy v0.95a5
#
DISCID=7310ae0b
DTITLE=Tom Waits - Hot Beer on a Cold Night
DYEAR=1979
DGENRE=Blues
TTITLE0=Romeo is Bleeding
TTITLE1=Annie's Back in Town
TTITLE2=Jitterbug Boy, Better off without a Wife
TTITLE3=I Wish I was in New Orleans, When the Saints...
TTITLE4=Since I Fell in Love with You
TTITLE5=Red Shoes
TTITLE6=Silent Night, X-mas Card...
TTITLE7=Hokey Pokey, Pasties and a G-string
TTITLE8=Summertime, Burma Shave
TTITLE9=Tom Traubert's Blues
TTITLE10=Small Change, Big Spender
EXTD=
EXTT0=
EXTT1=
EXTT2=
EXTT3=
EXTT4=
EXTT5=
EXTT6=
EXTT7=
EXTT8=
EXTT9=
EXTT10=
PLAYORDER=
